<mxfile host="app.diagrams.net" modified="2022-07-03T10:09:38.918Z" agent="5.0 (Windows)" etag="VH8ZyQYp4Y-2HV5EJvT4" version="20.0.3" type="github">
  <diagram id="_MnkTJCuXGpmeyMa1cVr" name="Page-1">
    <mxGraphModel dx="1422" dy="752" grid="1" gridSize="10" guides="1" tooltips="1" connect="1" arrows="1" fold="1" page="1" pageScale="1" pageWidth="827" pageHeight="1169" math="0" shadow="0">
      <root>
        <mxCell id="0" />
        <mxCell id="1" parent="0" />
        <mxCell id="y8drxrmLxElOXTqd7PwJ-1" value="Actor" style="shape=umlActor;verticalLabelPosition=bottom;verticalAlign=top;html=1;outlineConnect=0;" vertex="1" parent="1">
          <mxGeometry x="150" y="330" width="30" height="60" as="geometry" />
        </mxCell>
        <mxCell id="y8drxrmLxElOXTqd7PwJ-2" value="Anwendungsfall im Levelauswahlmen체" style="shape=umlFrame;whiteSpace=wrap;html=1;width=120;height=30;boundedLbl=1;verticalAlign=middle;align=left;spacingLeft=5;" vertex="1" parent="1">
          <mxGeometry x="240" y="200" width="560" height="510" as="geometry" />
        </mxCell>
        <mxCell id="y8drxrmLxElOXTqd7PwJ-3" value="&lt;div&gt;Zur체ck zu Men체&lt;/div&gt;&lt;div&gt;Button&lt;br&gt;&lt;/div&gt;" style="ellipse;whiteSpace=wrap;html=1;" vertex="1" parent="1">
          <mxGeometry x="294" y="260" width="120" height="50" as="geometry" />
        </mxCell>
        <mxCell id="y8drxrmLxElOXTqd7PwJ-4" value="Zeige 1 weiteres Level (Rechts) Button" style="ellipse;whiteSpace=wrap;html=1;" vertex="1" parent="1">
          <mxGeometry x="302" y="620" width="120" height="50" as="geometry" />
        </mxCell>
        <mxCell id="y8drxrmLxElOXTqd7PwJ-5" value="Zeige 1 weiteres Level (Links) Button" style="ellipse;whiteSpace=wrap;html=1;" vertex="1" parent="1">
          <mxGeometry x="302" y="530" width="120" height="50" as="geometry" />
        </mxCell>
        <mxCell id="y8drxrmLxElOXTqd7PwJ-6" value="Weiteres Level angezeigt" style="ellipse;whiteSpace=wrap;html=1;" vertex="1" parent="1">
          <mxGeometry x="618" y="560" width="120" height="50" as="geometry" />
        </mxCell>
        <mxCell id="y8drxrmLxElOXTqd7PwJ-7" value="&amp;lt;&amp;lt; extend &amp;gt;&amp;gt;" style="endArrow=open;dashed=1;html=1;rounded=0;endFill=0;exitX=1;exitY=0.5;exitDx=0;exitDy=0;" edge="1" parent="1" source="y8drxrmLxElOXTqd7PwJ-5" target="y8drxrmLxElOXTqd7PwJ-6">
          <mxGeometry width="50" height="50" relative="1" as="geometry">
            <mxPoint x="398" y="540" as="sourcePoint" />
            <mxPoint x="448" y="490" as="targetPoint" />
          </mxGeometry>
        </mxCell>
        <mxCell id="y8drxrmLxElOXTqd7PwJ-8" value="&amp;lt;&amp;lt; extend &amp;gt;&amp;gt;" style="endArrow=open;dashed=1;html=1;rounded=0;endFill=0;exitX=1;exitY=0.5;exitDx=0;exitDy=0;" edge="1" parent="1" source="y8drxrmLxElOXTqd7PwJ-4" target="y8drxrmLxElOXTqd7PwJ-6">
          <mxGeometry width="50" height="50" relative="1" as="geometry">
            <mxPoint x="432" y="565" as="sourcePoint" />
            <mxPoint x="630.2409435907659" y="588.2313605770428" as="targetPoint" />
          </mxGeometry>
        </mxCell>
        <mxCell id="y8drxrmLxElOXTqd7PwJ-11" value="Voraussetzung: In der Richtung sind weitere Level registriert" style="shape=note;whiteSpace=wrap;html=1;backgroundOutline=1;darkOpacity=0.05;size=15;fontSize=10;" vertex="1" parent="1">
          <mxGeometry x="462" y="574" width="116" height="40" as="geometry" />
        </mxCell>
        <mxCell id="y8drxrmLxElOXTqd7PwJ-12" value="Level Auswahl Button 3" style="ellipse;whiteSpace=wrap;html=1;" vertex="1" parent="1">
          <mxGeometry x="294" y="450" width="146" height="50" as="geometry" />
        </mxCell>
        <mxCell id="y8drxrmLxElOXTqd7PwJ-13" value="Level Auswahl Button 2" style="ellipse;whiteSpace=wrap;html=1;" vertex="1" parent="1">
          <mxGeometry x="294" y="390" width="146" height="50" as="geometry" />
        </mxCell>
        <mxCell id="y8drxrmLxElOXTqd7PwJ-14" value="Level Auswahl Button 1" style="ellipse;whiteSpace=wrap;html=1;" vertex="1" parent="1">
          <mxGeometry x="294" y="335" width="146" height="50" as="geometry" />
        </mxCell>
        <mxCell id="y8drxrmLxElOXTqd7PwJ-15" value="Spiele ausgew채hltes Level" style="ellipse;whiteSpace=wrap;html=1;" vertex="1" parent="1">
          <mxGeometry x="610" y="385" width="120" height="50" as="geometry" />
        </mxCell>
        <mxCell id="y8drxrmLxElOXTqd7PwJ-16" value="&amp;lt;&amp;lt; extend &amp;gt;&amp;gt;" style="endArrow=open;dashed=1;html=1;rounded=0;endFill=0;exitX=1;exitY=0.5;exitDx=0;exitDy=0;" edge="1" parent="1" source="y8drxrmLxElOXTqd7PwJ-12" target="y8drxrmLxElOXTqd7PwJ-15">
          <mxGeometry width="50" height="50" relative="1" as="geometry">
            <mxPoint x="424" y="565" as="sourcePoint" />
            <mxPoint x="622.2409435907659" y="588.2313605770428" as="targetPoint" />
          </mxGeometry>
        </mxCell>
        <mxCell id="y8drxrmLxElOXTqd7PwJ-17" value="&amp;lt;&amp;lt; extend &amp;gt;&amp;gt;" style="endArrow=open;dashed=1;html=1;rounded=0;endFill=0;exitX=1;exitY=0.5;exitDx=0;exitDy=0;" edge="1" parent="1" source="y8drxrmLxElOXTqd7PwJ-13" target="y8drxrmLxElOXTqd7PwJ-15">
          <mxGeometry width="50" height="50" relative="1" as="geometry">
            <mxPoint x="450" y="485" as="sourcePoint" />
            <mxPoint x="630.3442896052265" y="434.03313554634906" as="targetPoint" />
          </mxGeometry>
        </mxCell>
        <mxCell id="y8drxrmLxElOXTqd7PwJ-18" value="&amp;lt;&amp;lt; extend &amp;gt;&amp;gt;" style="endArrow=open;dashed=1;html=1;rounded=0;endFill=0;exitX=1;exitY=0.5;exitDx=0;exitDy=0;" edge="1" parent="1" source="y8drxrmLxElOXTqd7PwJ-14" target="y8drxrmLxElOXTqd7PwJ-15">
          <mxGeometry width="50" height="50" relative="1" as="geometry">
            <mxPoint x="450" y="425" as="sourcePoint" />
            <mxPoint x="620.0814971701186" y="421.30257614847574" as="targetPoint" />
          </mxGeometry>
        </mxCell>
        <mxCell id="y8drxrmLxElOXTqd7PwJ-20" value="" style="endArrow=none;html=1;rounded=0;fontSize=10;entryX=0;entryY=0.5;entryDx=0;entryDy=0;" edge="1" parent="1" source="y8drxrmLxElOXTqd7PwJ-1" target="y8drxrmLxElOXTqd7PwJ-3">
          <mxGeometry width="50" height="50" relative="1" as="geometry">
            <mxPoint x="390" y="410" as="sourcePoint" />
            <mxPoint x="440" y="360" as="targetPoint" />
          </mxGeometry>
        </mxCell>
        <mxCell id="y8drxrmLxElOXTqd7PwJ-21" value="" style="endArrow=none;html=1;rounded=0;fontSize=10;" edge="1" parent="1" source="y8drxrmLxElOXTqd7PwJ-1" target="y8drxrmLxElOXTqd7PwJ-14">
          <mxGeometry width="50" height="50" relative="1" as="geometry">
            <mxPoint x="190" y="364.04761904761904" as="sourcePoint" />
            <mxPoint x="320.551724137928" y="312.241379310346" as="targetPoint" />
          </mxGeometry>
        </mxCell>
        <mxCell id="y8drxrmLxElOXTqd7PwJ-22" value="" style="endArrow=none;html=1;rounded=0;fontSize=10;entryX=0;entryY=0.5;entryDx=0;entryDy=0;" edge="1" parent="1" source="y8drxrmLxElOXTqd7PwJ-1" target="y8drxrmLxElOXTqd7PwJ-13">
          <mxGeometry width="50" height="50" relative="1" as="geometry">
            <mxPoint x="200" y="374.04761904761904" as="sourcePoint" />
            <mxPoint x="330.551724137928" y="322.241379310346" as="targetPoint" />
          </mxGeometry>
        </mxCell>
        <mxCell id="y8drxrmLxElOXTqd7PwJ-23" value="" style="endArrow=none;html=1;rounded=0;fontSize=10;entryX=0;entryY=0.5;entryDx=0;entryDy=0;" edge="1" parent="1" source="y8drxrmLxElOXTqd7PwJ-1" target="y8drxrmLxElOXTqd7PwJ-12">
          <mxGeometry width="50" height="50" relative="1" as="geometry">
            <mxPoint x="210" y="384.04761904761904" as="sourcePoint" />
            <mxPoint x="340.551724137928" y="332.241379310346" as="targetPoint" />
          </mxGeometry>
        </mxCell>
        <mxCell id="y8drxrmLxElOXTqd7PwJ-24" value="" style="endArrow=none;html=1;rounded=0;fontSize=10;entryX=0;entryY=0.5;entryDx=0;entryDy=0;" edge="1" parent="1" source="y8drxrmLxElOXTqd7PwJ-1" target="y8drxrmLxElOXTqd7PwJ-5">
          <mxGeometry width="50" height="50" relative="1" as="geometry">
            <mxPoint x="220" y="394.04761904761904" as="sourcePoint" />
            <mxPoint x="350.551724137928" y="342.241379310346" as="targetPoint" />
          </mxGeometry>
        </mxCell>
        <mxCell id="y8drxrmLxElOXTqd7PwJ-25" value="" style="endArrow=none;html=1;rounded=0;fontSize=10;entryX=0;entryY=0.5;entryDx=0;entryDy=0;" edge="1" parent="1" source="y8drxrmLxElOXTqd7PwJ-1" target="y8drxrmLxElOXTqd7PwJ-4">
          <mxGeometry width="50" height="50" relative="1" as="geometry">
            <mxPoint x="230" y="404.04761904761904" as="sourcePoint" />
            <mxPoint x="360.551724137928" y="352.241379310346" as="targetPoint" />
          </mxGeometry>
        </mxCell>
      </root>
    </mxGraphModel>
  </diagram>
</mxfile>
